<svg width="56" height="56" viewBox="0 0 56 56" fill="none" xmlns="http://www.w3.org/2000/svg">
<rect width="56" height="56" rx="28" fill="#F8F8F8"/>
<mask id="mask0_295_3565" style="mask-type:alpha" maskUnits="userSpaceOnUse" x="14" y="14" width="28" height="28">
<rect x="14" y="14" width="28" height="28" fill="#D9D9D9"/>
</mask>
<g mask="url(#mask0_295_3565)">
<path d="M27.1253 33.3845H28.8753V28.1928L31.0447 30.3625L32.2744 29.1331L28.0003 24.859L23.7487 29.1107L24.9781 30.34L27.1253 28.1928V33.3845ZM19.026 36.75C18.4367 36.75 17.9378 36.5458 17.5295 36.1375C17.1212 35.7292 16.917 35.2303 16.917 34.641V21.359C16.917 20.7697 17.1212 20.2708 17.5295 19.8625C17.9378 19.4542 18.4367 19.25 19.026 19.25H25.4313L27.7647 21.5833H36.9746C37.564 21.5833 38.0628 21.7875 38.4712 22.1958C38.8795 22.6042 39.0837 23.103 39.0837 23.6924V34.641C39.0837 35.2303 38.8795 35.7292 38.4712 36.1375C38.0628 36.5458 37.564 36.75 36.9746 36.75H19.026ZM19.026 35H36.9746C37.0794 35 37.1655 34.9664 37.2327 34.8991C37.3 34.8318 37.3337 34.7458 37.3337 34.641V23.6924C37.3337 23.5876 37.3 23.5015 37.2327 23.4343C37.1655 23.367 37.0794 23.3333 36.9746 23.3333H27.0489L24.7156 21H19.026C18.9212 21 18.8352 21.0336 18.7679 21.1009C18.7006 21.1682 18.667 21.2542 18.667 21.359V34.641C18.667 34.7458 18.7006 34.8318 18.7679 34.8991C18.8352 34.9664 18.9212 35 19.026 35Z" fill="#5F2700"/>
</g>
</svg>
