<svg width="48" height="48" viewBox="0 0 48 48" fill="none" xmlns="http://www.w3.org/2000/svg">
<mask id="mask0_30_690" style="mask-type:alpha" maskUnits="userSpaceOnUse" x="0" y="0" width="48" height="48">
<rect width="48" height="48" rx="24" fill="url(#paint0_linear_30_690)"/>
</mask>
<g mask="url(#mask0_30_690)">
<rect width="48" height="48" rx="24" fill="url(#paint1_linear_30_690)"/>
<path d="M24.0346 25.85C25.8076 25.85 27.5409 25.3211 29.0152 24.3302C30.4894 23.3393 31.6385 21.9308 32.317 20.283C32.9955 18.6352 33.1731 16.822 32.8272 15.0726C32.4813 13.3233 31.6274 11.7164 30.3737 10.4553C29.1199 9.19406 27.5225 8.33518 25.7835 7.98722C24.0445 7.63925 22.242 7.81784 20.6039 8.50039C18.9657 9.18295 17.5656 10.3388 16.5806 11.8218C15.5955 13.3048 15.0697 15.0484 15.0697 16.832C15.0697 19.2237 16.0142 21.5175 17.6954 23.2087C19.3767 24.8999 21.6569 25.85 24.0346 25.85Z" fill="white"/>
<path d="M38.8305 48.5581C39.4861 48.5581 40.1148 48.2935 40.5783 47.8225C41.0419 47.3515 41.3023 46.7126 41.3023 46.0465C41.3023 41.3836 39.4794 36.9117 36.2346 33.6146C32.9897 30.3174 28.5888 28.4651 24 28.4651C19.4111 28.4651 15.0102 30.3174 11.7654 33.6146C8.52055 36.9117 6.69763 41.3836 6.69763 46.0465C6.69763 46.7126 6.95805 47.3515 7.42159 47.8225C7.88514 48.2935 8.51384 48.5581 9.16939 48.5581H38.8305Z" fill="white"/>
</g>
<defs>
<linearGradient id="paint0_linear_30_690" x1="24" y1="0" x2="24" y2="48" gradientUnits="userSpaceOnUse">
<stop stop-color="#FAAB71"/>
<stop offset="1" stop-color="#FEE0C7"/>
</linearGradient>
<linearGradient id="paint1_linear_30_690" x1="24" y1="0" x2="24" y2="48" gradientUnits="userSpaceOnUse">
<stop offset="0.39" stop-color="#4A4A4A"/>
<stop offset="0.665" stop-color="#797979"/>
</linearGradient>
</defs>
</svg>
